<svg width="74" height="74" viewBox="0 0 74 74" fill="none" xmlns="http://www.w3.org/2000/svg">
<path d="M36.9999 66.3333H66.3333V73.6667H36.9999C16.7489 73.6667 0.333252 57.251 0.333252 37C0.333252 16.749 16.7489 0.333334 36.9999 0.333334C57.2509 0.333334 73.6666 16.749 73.6666 37C73.6783 44.9355 71.1039 52.6586 66.3333 59H56.4039C61.5529 54.4591 64.946 48.256 65.9924 41.4709C67.0387 34.6858 65.6721 27.7487 62.1305 21.8675C58.5888 15.9863 53.0965 11.5336 46.61 9.2849C40.1234 7.03617 33.0536 7.13382 26.6317 9.56086C20.2098 11.9879 14.8425 16.5906 11.4647 22.5673C8.08679 28.5441 6.91229 35.5163 8.14568 42.2699C9.37906 49.0235 12.9422 55.1305 18.2146 59.5275C23.487 63.9245 30.1347 66.3329 36.9999 66.3333ZM36.9999 29.6667C35.055 29.6667 33.1897 28.894 31.8145 27.5188C30.4392 26.1435 29.6666 24.2783 29.6666 22.3333C29.6666 20.3884 30.4392 18.5231 31.8145 17.1479C33.1897 15.7726 35.055 15 36.9999 15C38.9448 15 40.8101 15.7726 42.1854 17.1479C43.5606 18.5231 44.3333 20.3884 44.3333 22.3333C44.3333 24.2783 43.5606 26.1435 42.1854 27.5188C40.8101 28.894 38.9448 29.6667 36.9999 29.6667ZM22.3333 44.3333C20.3883 44.3333 18.5231 43.5607 17.1478 42.1854C15.7725 40.8102 14.9999 38.9449 14.9999 37C14.9999 35.0551 15.7725 33.1898 17.1478 31.8146C18.5231 30.4393 20.3883 29.6667 22.3333 29.6667C24.2782 29.6667 26.1434 30.4393 27.5187 31.8146C28.894 33.1898 29.6666 35.0551 29.6666 37C29.6666 38.9449 28.894 40.8102 27.5187 42.1854C26.1434 43.5607 24.2782 44.3333 22.3333 44.3333ZM51.6666 44.3333C49.7217 44.3333 47.8564 43.5607 46.4811 42.1854C45.1059 40.8102 44.3333 38.9449 44.3333 37C44.3333 35.0551 45.1059 33.1898 46.4811 31.8146C47.8564 30.4393 49.7217 29.6667 51.6666 29.6667C53.6115 29.6667 55.4768 30.4393 56.852 31.8146C58.2273 33.1898 58.9999 35.0551 58.9999 37C58.9999 38.9449 58.2273 40.8102 56.852 42.1854C55.4768 43.5607 53.6115 44.3333 51.6666 44.3333ZM36.9999 59C35.055 59 33.1897 58.2274 31.8145 56.8521C30.4392 55.4768 29.6666 53.6116 29.6666 51.6667C29.6666 49.7217 30.4392 47.8565 31.8145 46.4812C33.1897 45.106 35.055 44.3333 36.9999 44.3333C38.9448 44.3333 40.8101 45.106 42.1854 46.4812C43.5606 47.8565 44.3333 49.7217 44.3333 51.6667C44.3333 53.6116 43.5606 55.4768 42.1854 56.8521C40.8101 58.2274 38.9448 59 36.9999 59Z" fill="#B91C1C"/>
</svg>
